<svg width="0" height="0" class="hidden">
  <symbol xmlns="http://www.w3.org/2000/svg" viewBox="0 0 20 20" id="plus">
    <path d="M18.9146 8.6046H11.3953V1.08527C11.3953 0.742732 10.9302 0 9.99996 0C9.06974 0 8.6046 0.742772 8.6046 1.08527V8.60464H1.08527C0.742772 8.6046 0 9.06973 0 9.99992C0 10.9301 0.742772 11.3953 1.08527 11.3953H8.60464V18.9146C8.60464 19.2571 9.06974 19.9999 10 19.9999C10.9303 19.9999 11.3954 19.2571 11.3954 18.9146V11.3953H18.9147C19.2572 11.3953 20 10.9302 20 9.99992C20 9.06965 19.2571 8.6046 18.9146 8.6046Z" ></path>
  </symbol>
  <symbol xmlns="http://www.w3.org/2000/svg" viewBox="0 0 16 16" id="plus_45_deg">
    <path d="M13.3169 0.7107L7.99996 6.02764L2.68299 0.710672C2.44078 0.468462 1.58669 0.272169 0.928919 0.929937C0.271151 1.58771 0.467472 2.44182 0.709654 2.684L6.02665 8.001L0.709681 13.318C0.467471 13.5601 0.27115 14.4142 0.928889 15.072C1.58663 15.7297 2.44077 15.5334 2.68295 15.2913L7.99996 9.97425L13.317 15.2913C13.5591 15.5334 14.4132 15.7298 15.071 15.072C15.7288 14.4142 15.5324 13.5601 15.2903 13.3179L9.97329 8.00092L15.2903 2.68392C15.5324 2.44176 15.7288 1.58765 15.071 0.92985C14.4132 0.272054 13.5591 0.468518 13.3169 0.7107Z" ></path>
  </symbol>
</svg>